<?xml version="1.0" standalone="no"?>
<!DOCTYPE svg PUBLIC "-//W3C//DTD SVG 20010904//EN"
 "http://www.w3.org/TR/2001/REC-SVG-20010904/DTD/svg10.dtd">
<svg version="1.0" xmlns="http://www.w3.org/2000/svg"
 width="768.000000pt" height="768.000000pt" viewBox="0 0 768.000000 768.000000"
 preserveAspectRatio="xMidYMid meet">
<metadata>
Created by potrace 1.14, written by Peter Selinger 2001-2017
</metadata>
<g transform="translate(0.000000,768.000000) scale(0.100000,-0.100000)"
fill="#000000" stroke="none">
<path d="M0 5860 c0 -1001 3 -1820 6 -1820 3 0 33 7 66 16 33 8 67 14 77 12 9
-2 -6 -10 -34 -17 -27 -7 -65 -20 -82 -29 -32 -16 -33 -18 -33 -84 0 -46 4
-68 12 -68 9 0 9 -3 0 -12 -7 -7 -12 -19 -12 -27 0 -11 3 -11 13 4 11 14 16
15 22 5 4 -7 2 -15 -4 -19 -6 -4 -9 -15 -5 -24 8 -23 25 -22 18 1 -5 14 -3 14
10 -2 9 -11 16 -25 16 -31 0 -15 30 -15 31 -1 0 6 4 0 10 -12 10 -27 29 -25
44 5 10 18 15 12 50 -56 48 -93 45 -88 53 -75 10 15 82 68 82 60 0 -3 -16 -23
-35 -45 l-35 -39 60 -22 c33 -12 60 -26 60 -31 0 -12 -57 -4 -75 11 -12 10
-16 9 -21 -3 -3 -9 -3 -20 0 -26 13 -20 -11 -19 -28 1 l-19 21 -16 -22 c-21
-27 -33 -17 -20 16 5 14 8 28 5 30 -5 6 -186 53 -203 53 -10 0 -13 -370 -13
-1815 l0 -1815 3840 0 3840 0 0 1578 c0 1454 -1 1579 -17 1601 -9 13 -26 42
-37 65 -12 23 -30 53 -40 68 -21 32 -14 68 15 68 10 0 19 4 19 10 0 5 -7 7
-15 4 -8 -4 -15 -2 -15 3 0 13 38 14 46 1 4 -6 -1 -15 -10 -20 -14 -8 -14 -11
-2 -24 19 -18 37 -18 30 0 -3 8 -1 16 4 20 17 10 5 -34 -13 -48 -21 -15 -28
-56 -10 -56 6 0 16 5 23 12 9 9 12 8 12 -4 0 -9 -5 -20 -10 -23 -16 -10 -12
-45 5 -45 13 0 15 31 15 215 0 118 -2 215 -5 215 -2 0 -46 -12 -97 -26 -107
-31 -126 -46 -95 -76 8 -7 12 -20 9 -30 -3 -14 0 -17 13 -11 13 4 16 3 11 -5
-4 -7 -3 -12 3 -12 11 0 25 39 17 47 -3 4 -6 1 -6 -5 0 -7 -4 -12 -10 -12 -5
0 -10 6 -10 14 0 7 -7 19 -15 26 -33 27 -4 19 69 -18 64 -33 73 -40 54 -45
-31 -9 -33 -8 -30 9 4 19 -13 18 -29 -3 -12 -15 -12 -16 1 -8 12 7 13 6 3 -6
-12 -14 -12 -17 -14 -46 0 -12 -4 -8 -11 10 -5 15 -14 25 -19 21 -5 -3 -6 -11
-2 -17 5 -9 2 -8 -8 0 -9 7 -24 31 -35 53 -10 22 -22 40 -27 40 -4 0 -26 -25
-49 -54 -23 -30 -44 -53 -46 -52 -2 2 15 34 38 71 32 52 37 67 23 62 -10 -2
-40 -10 -68 -17 -27 -6 -63 -16 -80 -21 -28 -8 -29 -7 -11 6 23 17 120 55 141
55 23 0 18 11 -25 55 -27 27 -37 44 -31 53 6 11 18 4 46 -27 21 -23 44 -41 51
-41 15 0 83 114 109 183 l18 48 -39 77 c-66 132 -82 154 -106 146 -13 -4 -18
-2 -14 4 3 6 0 13 -6 15 -8 3 -5 6 6 6 15 1 17 6 11 28 -5 22 -4 25 8 15 15
-13 33 2 56 46 7 12 16 20 21 17 6 -3 8 0 5 7 -3 7 9 30 26 51 l32 38 26 -24
c14 -14 33 -22 41 -20 12 4 13 3 3 -8 -10 -10 -17 -10 -37 1 -14 7 -27 20 -28
29 -3 12 -5 13 -11 4 -5 -8 2 -22 17 -37 35 -31 33 -40 -13 -64 -30 -16 -41
-18 -51 -9 -10 9 -11 9 -6 0 4 -8 -4 -23 -21 -38 l-28 -25 22 -19 c13 -10 52
-24 88 -30 36 -7 77 -16 90 -21 l25 -10 0 101 c0 92 -2 101 -17 94 -46 -19
-54 -14 -18 10 22 15 31 24 20 21 -19 -6 -19 -5 -2 8 19 15 24 41 5 30 -10 -6
-10 -4 -1 7 10 10 13 362 13 1691 l0 1678 -3840 0 -3840 0 0 -1820z m3845 530
c3 -5 -1 -10 -10 -10 -9 0 -13 5 -10 10 3 6 8 10 10 10 2 0 7 -4 10 -10z m-46
-38 c-13 -10 -66 -45 -118 -78 -52 -32 -99 -62 -105 -66 -7 -5 -6 -12 5 -20
16 -13 165 -186 232 -269 69 -86 37 -60 -53 43 -49 57 -114 130 -144 163 l-55
60 -44 -25 c-24 -14 -106 -63 -183 -109 l-140 -83 4 -59 c6 -78 -12 -139 -55
-189 -66 -77 -158 -104 -256 -76 -73 21 -110 53 -148 131 -27 56 -31 72 -27
124 9 124 114 223 238 225 80 1 141 -26 195 -86 l45 -50 47 31 c27 17 53 35
60 41 7 5 15 10 18 10 16 0 85 52 80 60 -3 5 1 7 9 4 15 -6 125 59 139 82 4 8
15 14 23 14 8 0 43 19 77 42 101 69 225 132 156 80z m438 -363 c-56 -145 -51
-167 21 -93 26 27 55 60 64 74 13 20 13 15 -3 -30 -10 -30 -18 -66 -19 -79 0
-13 -20 -67 -45 -119 -46 -97 -67 -119 -40 -42 8 24 13 45 11 47 -5 6 -76
-136 -76 -152 0 -7 -9 -41 -20 -75 -24 -75 -25 -86 -5 -70 18 15 18 14 1 -54
-18 -70 -19 -253 -1 -259 15 -6 57 127 141 440 32 117 59 211 61 209 3 -2 -41
-186 -96 -407 -113 -458 -136 -558 -128 -566 3 -3 9 6 12 19 4 14 18 28 36 35
16 6 28 15 27 20 -2 4 1 9 7 11 5 2 11 -1 13 -7 2 -6 -1 -11 -7 -11 -21 0 -11
-18 13 -22 15 -3 27 0 30 8 6 17 33 19 38 3 2 -6 20 -12 39 -13 20 -2 41 -6
48 -10 16 -10 14 -36 -5 -43 -8 -3 -13 -12 -10 -20 3 -8 1 -23 -4 -33 -7 -13
-7 -21 1 -25 7 -5 4 -15 -6 -32 -10 -14 -12 -22 -6 -19 13 8 14 4 5 -18 -3 -9
-14 -16 -25 -16 -23 0 -41 -32 -43 -80 0 -21 -4 -36 -8 -34 -9 6 -31 -74 -23
-86 3 -6 1 -10 -4 -10 -6 0 -11 -7 -11 -15 0 -8 8 -14 18 -13 9 1 26 0 37 -1
17 -1 18 -3 5 -11 -8 -5 -10 -10 -4 -10 11 0 47 -97 43 -116 -7 -39 0 -43 47
-27 30 10 48 23 54 39 11 28 16 29 36 9 9 -8 24 -15 35 -15 10 0 19 -4 19 -10
0 -17 60 -42 74 -31 17 14 29 1 15 -16 -7 -8 -8 -13 -1 -13 5 0 22 -25 38 -56
15 -30 33 -58 38 -62 6 -3 38 -6 71 -7 110 -1 206 -66 241 -162 39 -110 -3
-253 -92 -312 -44 -29 -55 -32 -137 -46 -22 -4 -41 -13 -44 -23 -4 -9 -11 -20
-17 -24 -13 -9 -18 -48 -6 -48 6 0 10 -5 10 -11 0 -6 -8 -9 -17 -7 -22 4 -44
-32 -31 -49 11 -14 1 -36 -13 -27 -5 3 -6 11 -2 17 4 7 -7 1 -24 -13 -32 -26
-49 -70 -31 -81 6 -4 0 -10 -13 -14 -13 -4 -40 -19 -59 -32 l-35 -25 29 7 c24
5 27 4 18 -7 -7 -9 -8 -19 -2 -28 13 -20 12 -40 -1 -40 -6 0 -9 6 -6 14 3 8 0
19 -7 25 -10 9 -17 5 -30 -13 -9 -14 -16 -32 -16 -40 0 -8 -4 -16 -10 -18 -5
-1 -16 -19 -24 -39 -15 -36 -15 -37 4 -32 13 4 20 0 20 -10 0 -17 -24 -40 -33
-30 -4 3 -7 1 -7 -6 0 -7 -6 -11 -12 -9 -14 5 -58 -75 -58 -104 0 -11 -4 -16
-10 -13 -5 3 -10 -2 -10 -13 0 -10 -7 -19 -15 -19 -11 0 -12 4 -4 14 14 16 0
17 -22 0 -9 -7 -14 -18 -11 -26 3 -10 -3 -12 -27 -6 -27 6 -31 4 -31 -14 0
-11 -12 -31 -26 -44 l-26 -24 43 -159 c23 -87 49 -187 58 -221 9 -35 18 -63
21 -63 3 1 27 32 53 70 27 39 52 70 58 70 5 0 -18 -54 -51 -120 l-60 -121 10
-67 c21 -128 43 -217 62 -256 14 -27 17 -45 11 -59 -8 -16 -14 -6 -41 64 -17
46 -34 102 -38 124 -11 70 -19 71 -47 5 -51 -118 -45 -202 16 -218 36 -9 35
-7 11 -80 -17 -50 -18 -56 -2 -100 10 -25 15 -48 13 -51 -9 -8 -65 124 -59
141 6 21 -25 78 -42 78 -7 0 -34 -43 -61 -95 -26 -51 -50 -89 -54 -82 -3 7 -3
55 1 107 5 71 15 115 39 175 17 44 31 90 31 103 0 28 -24 76 -57 116 -17 20
-22 36 -18 50 18 59 13 87 -32 176 -25 50 -49 90 -55 90 -5 0 -6 5 -3 11 4 6
-3 13 -14 16 -13 3 -28 21 -36 40 -18 43 -18 46 -3 37 6 -4 9 -3 6 2 -8 13 10
56 21 50 16 -10 22 26 8 43 -8 9 -12 22 -10 28 3 7 -7 17 -21 23 -14 5 -26 16
-26 23 0 17 -55 67 -73 67 -7 0 -21 -15 -30 -32 -10 -18 -33 -58 -52 -88 -19
-30 -58 -97 -86 -148 -28 -51 -53 -91 -55 -89 -11 11 67 260 107 339 16 32 27
64 23 70 -4 6 -3 8 3 5 6 -4 13 0 17 8 3 8 0 15 -6 15 -7 0 -6 5 2 15 7 8 16
12 21 9 14 -8 11 14 -4 28 -8 6 -11 22 -9 35 2 13 -1 23 -7 23 -6 0 -8 -7 -4
-17 5 -12 3 -14 -7 -8 -10 6 -12 4 -7 -9 6 -14 3 -17 -8 -12 -9 3 -13 2 -10
-4 3 -5 -3 -14 -14 -20 -13 -7 -18 -16 -14 -28 3 -9 3 -14 -2 -10 -4 4 -18 -4
-30 -18 -23 -26 -23 -26 -34 -6 -6 11 -11 33 -11 49 0 28 -12 55 -24 54 -19
-3 -25 2 -41 39 -10 22 -23 40 -29 40 -6 0 -22 10 -36 21 -20 17 -21 20 -5 14
18 -5 17 -4 -4 19 -13 13 -28 23 -35 20 -6 -2 -36 19 -66 46 -57 52 -68 55
-117 24 -21 -13 -28 -26 -24 -47 1 -5 -3 -6 -9 -2 -5 3 -11 1 -11 -4 -1 -6 -2
-15 -3 -20 0 -5 -5 -13 -10 -18 -5 -5 -6 -2 -2 7 4 8 -1 4 -12 -9 -18 -22 -18
-25 -3 -40 9 -9 27 -49 41 -88 22 -66 23 -77 13 -138 -19 -113 -86 -184 -194
-207 -195 -41 -351 133 -294 328 28 99 138 184 236 184 46 0 128 -21 143 -36
13 -12 18 -10 36 16 12 16 18 35 14 41 -4 7 -3 9 3 6 16 -10 63 85 56 114 -9
35 -42 79 -59 79 -8 0 -13 4 -10 9 9 14 -19 32 -38 25 -9 -3 -23 -1 -31 6 -18
15 -21 -1 -5 -31 9 -15 7 -19 -6 -19 -10 0 -14 -5 -10 -16 4 -10 2 -13 -6 -8
-7 5 -9 2 -5 -9 3 -8 0 -17 -6 -20 -25 -9 -100 1 -114 16 -13 13 -13 18 2 41
10 16 13 26 6 26 -19 0 -12 17 10 23 15 4 20 11 15 22 -9 26 4 67 20 61 8 -3
14 -1 14 3 0 5 -7 12 -16 15 -8 3 -13 10 -10 15 9 14 -4 41 -20 41 -7 0 -18 9
-24 20 -6 11 -17 20 -26 20 -28 0 -111 49 -142 84 -46 53 -64 92 -69 157 -10
110 45 207 145 256 69 34 157 38 211 11 46 -24 49 -23 15 7 -15 13 -41 27 -56
30 -16 4 -26 11 -22 16 3 5 -1 9 -9 9 -18 0 -98 70 -92 80 3 5 1 11 -4 14 -10
6 -7 81 3 114 4 13 18 18 47 19 38 2 41 0 56 -35 l15 -37 20 25 c15 18 21 21
28 11 13 -22 30 -3 20 23 -13 36 3 53 40 39 18 -7 32 -8 36 -2 3 5 10 7 15 4
5 -4 9 -1 9 5 0 7 7 9 16 6 17 -6 44 15 44 34 0 7 -7 10 -15 6 -8 -3 -15 -2
-15 3 0 16 38 19 44 4 6 -15 37 -14 48 2 4 6 11 10 15 11 4 0 21 6 37 13 29
12 57 9 55 -6 -5 -30 2 -35 21 -18 11 10 17 22 13 28 -4 7 1 8 13 3 15 -5 16
-4 7 5 -6 6 -9 19 -5 28 5 13 3 14 -10 4 -8 -7 -19 -9 -23 -5 -5 4 -5 -1 -2
-11 6 -15 3 -17 -16 -11 -12 4 -28 7 -34 7 -7 0 -13 1 -13 2 0 6 39 46 44 46
19 -2 21 3 20 42 -3 68 -65 267 -84 267 -5 0 -7 12 -4 28 3 17 -9 67 -36 141
-22 63 -39 119 -37 125 2 6 43 -65 92 -157 59 -113 91 -164 96 -155 7 10 9 9
9 -4 0 -10 5 -18 11 -18 5 0 8 4 5 9 -3 5 1 11 9 15 8 3 15 12 15 20 0 8 10
18 21 21 19 6 20 12 15 47 -5 30 -3 39 6 36 7 -3 13 -12 13 -21 0 -8 4 -19 8
-23 4 -4 7 -2 7 4 0 7 5 12 11 12 5 0 7 -4 4 -10 -8 -12 -3 -13 29 0 17 6 26
17 26 32 l1 23 18 -23 c13 -15 21 -18 24 -10 4 9 6 8 6 -2 1 -11 13 -15 41
-15 81 0 80 20 -9 330 l-18 60 -13 -72 c-7 -40 -17 -73 -22 -73 -4 0 -8 3 -8
8 0 4 -9 68 -20 142 -23 159 -22 150 -10 150 5 0 21 -20 35 -44 14 -24 32 -50
40 -56 8 -7 40 -66 72 -132 54 -113 58 -119 66 -92 5 16 10 85 12 154 3 108 6
125 20 125 9 0 26 19 39 45 13 25 48 88 78 141 31 53 84 152 118 220 69 137
135 255 158 282 10 11 11 17 4 17 -7 0 -12 5 -12 12 0 8 6 6 17 -4 15 -16 13
-25 -30 -139z m628 122 c117 -53 178 -219 121 -330 -76 -146 -265 -188 -385
-84 -58 49 -85 113 -86 200 0 52 -4 73 -12 73 -7 0 -13 5 -13 11 0 5 4 7 10 4
5 -3 35 21 66 54 36 38 71 65 98 75 58 21 152 19 201 -3z m-1678 -23 c-3 -8
-6 -5 -6 6 -1 11 2 17 5 13 3 -3 4 -12 1 -19z m263 -33 c7 -9 10 -18 7 -22 -8
-7 -37 15 -37 28 0 14 16 11 30 -6z m517 -64 c-34 -44 -64 -78 -66 -76 -6 7
114 155 126 155 1 0 -25 -36 -60 -79z m386 24 c-3 -9 -8 -14 -10 -11 -3 3 -2
9 2 15 9 16 15 13 8 -4z m161 -1 c3 -8 2 -12 -4 -9 -6 3 -10 10 -10 16 0 14 7
11 14 -7z m-57 -70 c5 -14 -35 -26 -43 -13 -8 14 6 30 24 27 8 -2 17 -8 19
-14z m-93 -48 c-3 -15 -8 -25 -11 -23 -2 3 -1 17 3 31 3 15 8 25 11 23 2 -3 1
-17 -3 -31z m-814 -66 c0 -5 -4 -10 -10 -10 -5 0 -10 5 -10 10 0 6 5 10 10 10
6 0 10 -4 10 -10z m300 -21 c0 -11 -4 -17 -10 -14 -5 3 -10 15 -10 26 0 11 5
17 10 14 6 -3 10 -15 10 -26z m487 -1 c-3 -8 -6 -5 -6 6 -1 11 2 17 5 13 3 -3
4 -12 1 -19z m-2247 -92 c6 -18 20 -42 30 -51 15 -14 17 -21 9 -31 -6 -7 -8
-18 -4 -24 3 -5 3 -15 -1 -21 -5 -8 -9 -8 -14 1 -13 21 -41 -6 -133 -127 -48
-64 -87 -111 -87 -105 0 11 43 91 129 241 21 36 28 57 20 61 -7 5 -5 9 5 13
10 4 16 19 16 42 0 44 15 45 30 1z m3377 -32 c-3 -3 -12 -4 -19 -1 -8 3 -5 6
6 6 11 1 17 -2 13 -5z m-3473 -40 c3 -8 2 -12 -4 -9 -6 3 -10 10 -10 16 0 14
7 11 14 -7z m1356 -74 c0 -5 -4 -10 -10 -10 -5 0 -10 5 -10 10 0 6 5 10 10 10
6 0 10 -4 10 -10z m2171 -23 l-24 -22 19 27 c10 14 21 24 23 22 3 -3 -6 -15
-18 -27z m-584 -96 c82 -124 191 -377 170 -397 -3 -3 -8 10 -12 28 -10 45 -89
229 -130 304 -19 33 -55 89 -80 125 -26 36 -32 49 -15 29 17 -19 47 -59 67
-89z m763 88 c0 -6 9 -24 21 -40 11 -16 19 -35 17 -41 -3 -7 -16 6 -31 27 -28
41 -34 65 -17 65 6 0 10 -5 10 -11z m-2934 -106 c-79 -122 -111 -184 -152
-298 -18 -49 -33 -82 -34 -73 -1 61 105 277 208 421 56 79 45 53 -22 -50z
m-526 -63 c-32 -41 -60 -65 -45 -39 18 30 60 79 68 79 5 0 -6 -18 -23 -40z
m3715 -20 c3 -5 1 -10 -4 -10 -6 0 -11 5 -11 10 0 6 2 10 4 10 3 0 8 -4 11
-10z m-4430 -60 c115 -91 230 -220 329 -369 61 -93 116 -158 87 -103 -13 24
-12 29 26 140 24 67 43 93 43 57 0 -8 7 -15 15 -15 18 0 19 12 3 28 -9 9 -9
12 3 12 12 0 16 -14 18 -57 1 -32 12 -101 25 -153 13 -52 24 -113 25 -135 1
-22 3 -49 4 -60 1 -11 -3 -19 -10 -18 -7 2 -10 -4 -6 -13 4 -12 8 -13 14 -3 5
8 7 2 7 -17 -1 -17 2 -36 6 -42 3 -5 13 -47 22 -92 16 -86 64 -210 95 -245 13
-15 15 -25 8 -38 -6 -9 -8 -25 -5 -35 4 -10 -1 -27 -9 -38 -8 -10 -15 -34 -15
-52 l0 -33 -62 33 c-90 47 -224 183 -271 274 -40 77 -84 206 -123 358 -14 54
-38 124 -53 155 -16 31 -54 124 -85 206 -55 143 -80 196 -120 258 -23 35 -18
34 29 -3z m4651 -13 c-38 -51 -80 -143 -131 -287 -26 -74 -55 -149 -66 -166
-10 -17 -36 -98 -58 -180 -22 -82 -45 -165 -51 -184 -16 -54 -62 -161 -87
-202 -40 -65 -135 -153 -218 -202 l-80 -46 -6 30 c-9 42 -19 49 -20 14 l-1
-29 -9 30 c-5 17 -6 45 -3 63 4 20 2 32 -5 32 -6 0 -11 -15 -12 -32 0 -18 -5
-42 -10 -53 -6 -14 -7 -2 -3 35 7 62 11 73 25 65 5 -4 9 1 9 10 0 8 5 23 10
33 30 51 82 194 101 275 12 51 29 101 38 112 16 20 16 20 -5 2 -11 -9 -23 -15
-25 -13 -2 2 -4 -9 -5 -25 -1 -17 -6 -35 -11 -40 -6 -6 -12 36 -16 125 -7 142
-46 321 -101 469 -17 44 -22 67 -14 67 9 0 9 3 0 12 -7 7 -12 28 -11 48 0 27
2 31 8 15 15 -38 33 -90 37 -110 l4 -20 -9 20 c-7 15 -10 16 -10 5 -1 -9 4
-21 11 -28 7 -7 9 -12 5 -12 -4 0 3 -19 15 -42 12 -24 23 -55 23 -70 1 -29 15
-53 15 -25 0 9 4 18 8 21 9 5 16 -44 16 -111 0 -23 4 -39 8 -37 7 5 9 -6 12
-63 1 -12 5 -25 10 -30 5 -5 6 -3 2 5 -4 6 -3 12 2 12 5 0 14 11 20 25 6 14
18 25 25 25 9 0 21 34 36 104 20 96 21 107 7 133 -8 15 -15 24 -16 18 -1 -22
-20 22 -20 48 0 15 -5 27 -11 27 -6 0 -8 -9 -4 -21 4 -13 3 -19 -2 -16 -13 8
-3 -46 10 -54 5 -4 5 -14 -2 -27 -6 -11 -11 -31 -11 -44 0 -22 1 -22 25 7 13
17 24 25 25 18 0 -6 -5 -15 -11 -18 -6 -4 -8 -14 -5 -22 3 -8 1 -11 -4 -8 -6
3 -10 -2 -10 -13 0 -24 -38 -74 -51 -66 -5 3 -9 17 -8 32 1 15 -3 39 -9 55 -7
15 -8 27 -4 27 4 0 1 4 -7 9 -7 5 -10 14 -7 20 4 6 11 9 15 7 4 -3 8 4 8 15 1
11 -3 17 -9 13 -6 -4 -8 1 -3 16 4 12 7 53 8 92 1 39 3 66 5 59 2 -6 7 -9 12
-6 4 3 8 -1 7 -8 -1 -34 4 -46 17 -41 15 6 46 -41 46 -70 0 -8 8 -20 18 -25 9
-6 13 -11 7 -11 -5 0 -5 -4 2 -8 6 -4 14 -27 18 -51 7 -51 20 -87 34 -95 16
-10 24 -82 11 -108 -22 -46 51 46 146 184 70 102 119 160 195 231 59 55 107
93 115 90 10 -4 8 -12 -10 -36z m-1752 -48 c10 16 34 -3 49 -39 16 -39 17 -52
4 -74 -6 -12 -10 -24 -9 -28 1 -4 -5 -5 -13 -2 -8 4 -15 1 -15 -6 0 -8 -10
-10 -33 -6 -21 4 -40 1 -53 -9 -24 -16 -34 -11 -34 17 0 10 7 18 16 18 10 0
14 6 10 15 -3 8 -1 15 4 15 6 0 10 5 10 10 0 6 -8 10 -17 8 -23 -4 -28 25 -12
62 10 21 21 30 44 32 19 2 32 -2 36 -11 4 -11 7 -12 13 -2z m1481 -10 c3 6 14
11 23 11 14 -1 14 -2 -3 -12 -11 -6 -23 -15 -26 -20 -3 -5 -11 4 -17 19 -11
25 -11 26 2 10 9 -12 16 -14 21 -8z m-396 -29 c0 -10 -3 -8 -9 5 -12 27 -12
43 0 25 5 -8 9 -22 9 -30z m-3717 18 c15 1 16 -2 5 -19 -9 -14 -13 -16 -15 -6
-2 8 -13 20 -25 26 -17 9 -18 10 -2 5 11 -4 28 -6 37 -6z m2453 2 c3 -5 -3
-10 -14 -10 -11 0 -23 5 -26 10 -3 6 3 10 14 10 11 0 23 -4 26 -10z m-1095
-26 c0 -8 -5 -12 -10 -9 -6 4 -8 11 -5 16 9 14 15 11 15 -7z m420 2 c0 -3 -4
-8 -10 -11 -5 -3 -10 -1 -10 4 0 6 5 11 10 11 6 0 10 -2 10 -4z m-1323 -43
c-5 -26 -4 -27 10 -8 14 19 15 19 8 -5 -4 -14 -13 -36 -20 -50 -6 -14 -18 -47
-25 -73 -7 -26 -15 -46 -17 -43 -4 4 11 69 24 103 4 11 2 14 -5 9 -7 -4 -6 9
3 41 8 26 15 49 15 51 0 1 3 2 6 2 4 0 4 -12 1 -27z m-106 -73 c5 0 9 14 9 31
0 28 1 29 16 14 11 -11 14 -24 10 -43 -4 -15 -11 -52 -16 -82 -12 -66 -28
-122 -29 -97 -1 9 -7 17 -13 17 -9 0 -13 23 -13 79 -1 44 3 77 7 75 4 -3 8 2
8 11 0 9 -4 13 -10 10 -7 -4 -7 3 0 20 5 14 9 29 9 33 -1 4 0 12 2 17 1 6 4
-11 6 -37 2 -27 8 -48 14 -48z m-390 37 c-10 -9 -11 -8 -5 6 3 10 9 15 12 12
3 -3 0 -11 -7 -18z m1293 -21 c64 -20 106 -54 139 -114 71 -131 26 -279 -110
-359 -110 -64 -278 -12 -337 105 -51 101 -40 208 30 290 71 83 169 111 278 78z
m1820 -20 c83 -48 125 -126 125 -231 1 -140 -101 -245 -240 -245 -82 0 -128
19 -185 75 -171 170 -51 446 188 432 49 -3 78 -11 112 -31z m-2834 -8 c0 -5
-4 -8 -10 -8 -5 0 -10 10 -10 23 0 18 2 19 10 7 5 -8 10 -18 10 -22z m1615 -8
c-5 -8 -11 -8 -17 -2 -6 6 -7 16 -3 22 5 8 11 8 17 2 6 -6 7 -16 3 -22z
m-1328 -92 c-3 -8 -6 -5 -6 6 -1 11 2 17 5 13 3 -3 4 -12 1 -19z m3053 -74
c-7 -36 -21 -91 -31 -122 -21 -62 -20 -55 13 95 25 112 38 132 18 27z m-980
50 c0 -8 -4 -12 -10 -9 -5 3 -10 10 -10 16 0 5 5 9 10 9 6 0 10 -7 10 -16z
m-2202 -42 c-6 -24 -13 -41 -15 -38 -2 2 1 23 7 46 6 23 13 40 15 38 2 -2 -1
-23 -7 -46z m-23 -112 c-4 -23 -9 -39 -12 -36 -3 2 -2 23 2 46 4 23 9 39 12
36 3 -2 2 -23 -2 -46z m330 -320 c15 -30 47 -84 72 -119 24 -35 42 -66 39 -68
-5 -6 -91 108 -113 150 -21 42 -123 300 -123 312 1 5 22 -42 49 -105 26 -63
60 -140 76 -170z m-335 246 c0 -3 -4 -8 -10 -11 -5 -3 -10 -1 -10 4 0 6 5 11
10 11 6 0 10 -2 10 -4z m3150 -43 c-11 -17 -11 -17 -6 0 3 10 6 24 7 30 0 9 2
9 5 0 3 -7 0 -20 -6 -30z m-3163 -35 c-3 -8 -6 -5 -6 6 -1 11 2 17 5 13 3 -3
4 -12 1 -19z m3138 -45 c-49 -131 -156 -313 -240 -408 -38 -44 -21 -14 60 105
74 107 123 198 165 303 27 69 41 69 15 0z m2201 9 c-12 -11 -18 7 -10 30 l8
23 4 -23 c2 -13 1 -26 -2 -30z m-3096 -13 c0 -5 -4 -9 -10 -9 -5 0 -10 7 -10
16 0 8 5 12 10 9 6 -3 10 -10 10 -16z m1720 -76 c0 -2 -7 3 -16 11 -20 20 -38
21 -30 1 3 -8 1 -15 -5 -15 -7 0 -9 15 -5 38 3 20 5 42 6 47 0 9 50 -72 50
-82z m-4507 -25 c-24 -24 -58 -18 -66 12 -3 11 -2 18 3 15 4 -2 20 14 36 37
l29 41 9 -42 c8 -36 6 -45 -11 -63z m-370 78 c126 -52 178 -239 99 -352 -18
-24 -32 -48 -32 -52 1 -18 194 -129 370 -213 l195 -92 110 -113 c125 -128 145
-151 145 -163 0 -5 7 -14 15 -21 8 -7 15 -20 15 -30 0 -9 17 -43 37 -73 38
-58 88 -92 117 -81 19 7 19 9 5 37 -6 12 12 0 40 -28 67 -65 71 -96 6 -57 -16
10 -39 21 -50 25 l-20 7 20 -15 c11 -9 29 -22 40 -30 17 -12 18 -16 5 -24 -84
-58 -497 129 -591 268 -13 19 -54 68 -91 107 -37 40 -79 97 -94 126 -73 145
-180 273 -281 336 -79 49 -123 82 -123 92 0 14 26 12 51 -2 18 -11 23 -10 44
15 36 40 49 101 35 151 -7 23 -14 58 -17 79 -3 20 -9 37 -14 37 -5 0 -9 9 -9
20 0 10 -9 24 -20 30 -16 8 -20 8 -20 -4 0 -21 -27 -9 -33 15 -6 23 3 24 46 5z
m5257 -3 c-13 -9 -32 -25 -43 -36 -14 -14 -21 -16 -27 -7 -5 8 -15 1 -34 -20
-28 -33 -33 -50 -15 -50 17 0 50 20 45 28 -3 5 5 9 16 9 20 2 20 1 -2 -19 -49
-45 -64 -135 -35 -205 25 -59 34 -66 61 -48 13 8 26 15 30 15 11 0 -99 -104
-147 -138 -56 -41 -105 -103 -189 -243 -76 -126 -261 -337 -356 -405 -114 -81
-313 -164 -395 -164 -31 0 -44 23 -23 41 22 18 9 22 -30 8 -28 -10 -38 -10
-50 0 -23 19 -21 24 32 62 72 52 73 52 57 22 -22 -41 -19 -56 8 -48 62 19 123
91 152 180 3 11 7 22 8 25 1 3 11 14 22 25 20 19 20 19 1 5 -20 -14 -20 -14
-6 4 8 11 67 71 130 133 l115 114 181 89 c162 79 181 91 179 112 -1 13 0 15 2
6 6 -24 14 -23 75 13 94 55 136 91 135 119 0 14 -2 19 -4 13 -9 -25 -21 -12
-49 52 -21 48 -34 65 -49 66 -18 2 -17 2 3 6 17 3 22 11 22 36 0 74 60 157
145 201 41 22 66 21 35 -1z m970 -14 c0 -5 -4 -9 -8 -9 -5 0 -9 7 -9 15 0 8 4
12 9 9 4 -3 8 -9 8 -15z m-4419 -22 c-13 -13 -26 -3 -16 12 3 6 11 8 17 5 6
-4 6 -10 -1 -17z m1301 -22 c0 -5 -5 -11 -11 -13 -6 -2 -11 4 -11 13 0 9 5 15
11 13 6 -2 11 -8 11 -13z m1848 -34 c0 -10 -26 -9 -36 2 -4 4 2 7 14 7 12 0
22 -4 22 -9z m-705 -43 c-5 -24 -45 -70 -45 -51 0 7 5 15 11 18 5 4 14 18 19
31 12 30 20 31 15 2z m2180 -28 c3 -5 2 -10 -4 -10 -5 0 -13 5 -16 10 -3 6 -2
10 4 10 5 0 13 -4 16 -10z m-4605 -10 c0 -5 -4 -10 -10 -10 -5 0 -10 5 -10 10
0 6 5 10 10 10 6 0 10 -4 10 -10z m1390 1 c0 -6 -4 -13 -10 -16 -5 -3 -10 1
-10 9 0 9 5 16 10 16 6 0 10 -4 10 -9z m160 -1 c0 -5 -2 -10 -4 -10 -3 0 -8 5
-11 10 -3 6 -1 10 4 10 6 0 11 -4 11 -10z m3046 -37 c-4 -5 -13 -8 -19 -8 -7
-1 -11 -7 -9 -15 3 -10 -3 -9 -17 4 -12 11 -19 22 -16 25 4 3 10 -1 15 -9 8
-12 10 -12 10 -1 0 8 6 11 18 7 15 -5 14 -4 -2 9 -10 8 -24 11 -30 8 -6 -4 -5
1 2 10 13 15 15 15 35 -3 11 -11 17 -23 13 -27z m-3295 -6 c-13 -13 -26 -3
-16 12 3 6 11 8 17 5 6 -4 6 -10 -1 -17z m199 8 c0 -8 -7 -15 -15 -15 -16 0
-20 12 -8 23 11 12 23 8 23 -8z m3079 -49 c14 5 14 4 -1 -6 -13 -8 -22 -7 -38
7 -11 10 -20 21 -20 26 0 4 9 -1 21 -12 12 -11 29 -17 38 -15z m-6048 -34 c28
-7 61 -12 74 -12 15 0 25 -7 28 -22 4 -12 4 -24 2 -26 -2 -2 -40 7 -84 21
l-80 24 -5 -26 c-3 -14 -8 -53 -12 -86 -4 -33 -9 -55 -11 -50 -2 6 0 45 5 88
4 42 4 83 0 92 -6 11 -4 15 7 15 8 0 16 8 16 18 1 13 3 12 6 -4 3 -16 16 -24
54 -32z m2973 42 c13 -5 14 -9 5 -20 -17 -21 -39 -17 -39 6 0 21 8 24 34 14z
m1566 -54 c0 -5 -5 -10 -11 -10 -5 0 -7 5 -4 10 3 6 8 10 11 10 2 0 4 -4 4
-10z m-100 -23 c0 -8 -11 -19 -24 -25 -22 -10 -23 -9 -12 14 12 26 36 33 36
11z m-5820 -17 c0 -5 -7 -10 -16 -10 -8 0 -12 5 -9 10 3 6 10 10 16 10 5 0 9
-4 9 -10z m2475 0 c3 -5 2 -10 -4 -10 -5 0 -13 5 -16 10 -3 6 -2 10 4 10 5 0
13 -4 16 -10z m-2515 -10 c0 -5 -5 -10 -11 -10 -5 0 -7 5 -4 10 3 6 8 10 11
10 2 0 4 -4 4 -10z m62 -30 c7 -11 18 -20 24 -20 7 0 10 -8 7 -20 -4 -14 0
-20 13 -20 9 0 14 -3 10 -7 -4 -5 -12 -8 -17 -8 -5 0 -23 -16 -40 -35 -18 -20
-26 -26 -20 -13 16 31 14 34 -16 28 -27 -5 -26 -4 4 10 37 17 50 34 34 44 -7
5 -9 15 -5 26 6 14 4 17 -9 12 -17 -6 -31 5 -20 17 11 11 23 7 35 -14z m4538
-64 c0 -3 -4 -8 -10 -11 -5 -3 -10 -1 -10 4 0 6 5 11 10 11 6 0 10 -2 10 -4z
m-2530 -50 c0 -8 7 -19 15 -26 18 -15 20 -41 3 -37 -7 1 -18 18 -25 37 -15 42
-16 53 -3 45 6 -3 10 -12 10 -19z m-730 -7 c0 -11 -4 -18 -10 -14 -5 3 -7 12
-3 20 7 21 13 19 13 -6z m3891 -56 c-9 -16 -10 -16 -11 -1 0 9 3 25 7 35 7 16
8 17 11 1 2 -10 -1 -25 -7 -35z m36 0 c-3 -10 -5 -2 -5 17 0 19 2 27 5 18 2
-10 2 -26 0 -35z m-5340 -45 c-3 -8 -6 -5 -6 6 -1 11 2 17 5 13 3 -3 4 -12 1
-19z m73 3 c0 -5 -8 -11 -17 -15 -10 -3 -24 -9 -30 -12 -7 -3 -13 -1 -13 6 0
6 5 8 10 5 6 -3 13 1 16 9 6 17 34 22 34 7z m7009 -97 c-12 -14 -9 -20 21 -45
18 -16 31 -31 28 -34 -8 -8 -68 44 -68 59 0 7 5 17 12 24 18 18 23 15 7 -4z
m-5659 2 c0 -2 -7 -7 -16 -10 -8 -3 -12 -2 -9 4 6 10 25 14 25 6z m5940 -10
c0 -3 -4 -8 -10 -11 -5 -3 -10 -1 -10 4 0 6 5 11 10 11 6 0 10 -2 10 -4z
m-310 -10 c0 -2 -8 -10 -17 -17 -16 -13 -17 -12 -4 4 13 16 21 21 21 13z
m-7024 -53 c-4 -4 -11 -1 -16 7 -16 25 -11 35 7 17 9 -9 13 -20 9 -24z m317
-16 c-36 -30 -90 -67 -96 -67 -7 0 -1 49 7 57 3 3 6 -1 6 -10 0 -23 8 -21 55
13 48 34 68 39 28 7z m6822 -8 c11 -17 -1 -21 -15 -4 -8 9 -8 15 -2 15 6 0 14
-5 17 -11z m49 -34 c11 -8 15 -15 10 -15 -6 0 -19 7 -30 15 -10 8 -14 14 -9
14 6 0 19 -6 29 -14z m-1146 -91 c-10 -10 -28 6 -28 24 0 15 1 15 17 -1 9 -9
14 -19 11 -23z m-4658 -14 c0 -10 5 -22 10 -25 6 -3 10 -14 10 -23 0 -14 -1
-14 -13 2 -12 16 -14 15 -36 -8 -13 -14 -28 -23 -34 -19 -6 3 -7 1 -3 -5 3 -6
-16 -30 -44 -54 -54 -47 -60 -58 -31 -58 15 0 18 -5 13 -22 -5 -21 -6 -21 -12
-2 -4 10 -5 -13 -2 -51 6 -90 -22 -164 -76 -200 l-36 -24 -16 27 c-16 26 -15
27 15 57 41 42 59 103 45 154 -19 70 -76 121 -137 121 -24 0 -31 6 -42 35 -7
19 -18 35 -24 36 -7 0 1 5 17 9 57 17 149 -20 200 -81 22 -26 26 -28 26 -11 0
15 5 19 19 15 10 -3 22 1 26 8 6 8 4 10 -6 5 -8 -4 1 6 19 23 18 17 38 31 45
31 22 0 59 50 54 71 -3 11 -1 17 4 13 5 -3 9 -14 9 -24z m5043 -46 c12 -4 9
-12 -14 -35 -29 -30 -38 -46 -19 -34 6 3 10 2 10 -2 0 -5 -20 -14 -45 -21
-106 -28 -140 -190 -56 -266 l21 -19 -21 -15 c-11 -8 -18 -20 -15 -29 6 -15
-7 -10 -36 15 -15 12 -20 11 -47 -17 -17 -18 -31 -28 -31 -23 0 4 13 21 30 37
26 25 28 31 16 44 -19 23 -36 79 -36 121 0 37 -20 67 -35 52 -4 -4 -3 3 3 14
6 12 8 24 4 28 -3 4 1 4 11 0 9 -3 17 -14 17 -23 0 -9 14 9 31 40 22 40 42 62
72 79 23 13 49 29 57 35 13 11 33 19 62 24 3 0 13 -2 21 -5z m-6421 -36 c-7
-7 -12 -8 -12 -2 0 14 12 26 19 19 2 -3 -1 -11 -7 -17z m48 -19 c0 -3 -6 -6
-12 -6 -7 0 -22 -4 -33 -7 -15 -5 -15 -4 3 5 12 7 22 19 22 28 0 14 2 14 10 1
5 -8 10 -18 10 -21z m6095 21 c3 6 11 7 18 3 7 -4 4 -9 -8 -13 -15 -5 -13 -10
18 -29 21 -12 37 -27 37 -32 0 -18 -17 -8 -60 38 -25 26 -38 41 -28 35 11 -9
18 -10 23 -2z m-3550 -10 c3 -5 1 -10 -4 -10 -6 0 -11 5 -11 10 0 6 2 10 4 10
3 0 8 -4 11 -10z m3220 -32 c-4 -23 0 -36 20 -56 14 -14 28 -22 32 -19 3 4 -5
18 -20 32 -23 24 -29 43 -17 54 6 6 46 -16 43 -23 -7 -15 -1 -24 20 -33 13 -6
24 -18 24 -27 0 -12 -4 -13 -11 -6 -12 12 -26 13 -26 1 0 -5 13 -12 29 -16 16
-3 36 -14 43 -23 8 -10 9 -13 1 -9 -6 4 -14 3 -17 -2 -4 -5 -2 -12 4 -16 13
-8 13 -45 0 -45 -6 0 -4 -11 5 -24 10 -15 13 -31 8 -44 -8 -20 -9 -20 -43 -4
-19 10 -46 18 -60 20 -20 2 -143 36 -208 58 -14 4 34 74 116 171 47 57 65 60
57 11z m-4190 13 c-3 -5 3 -11 12 -13 16 -4 16 -5 -3 -15 -12 -7 -26 -8 -34
-3 -13 8 -12 12 5 24 23 18 28 19 20 7z m-1555 -31 c-13 -24 -26 -26 -33 -6
-6 15 6 24 31 25 10 1 10 -4 2 -19z m1481 -23 l-34 -32 29 37 c15 20 30 35 33
32 3 -2 -10 -19 -28 -37z m4389 3 c0 -13 -11 -13 -30 0 -12 8 -11 10 8 10 12
0 22 -4 22 -10z m61 -12 c17 1 26 -3 26 -13 0 -8 -3 -15 -5 -15 -16 0 -72 25
-72 33 0 4 5 5 12 1 7 -5 24 -7 39 -6z m1469 8 c0 -3 -4 -8 -10 -11 -5 -3 -10
-1 -10 4 0 6 5 11 10 11 6 0 10 -2 10 -4z m-5753 -46 c12 -13 21 -25 20 -27
-2 -1 -21 -5 -43 -8 -61 -10 -114 -25 -114 -34 0 -4 -11 -14 -25 -21 -13 -7
-21 -18 -18 -24 3 -6 3 -8 -2 -4 -4 4 -14 3 -21 -3 -8 -7 -14 -7 -19 1 -7 11
32 49 52 50 6 0 14 4 17 9 6 9 -27 7 -66 -4 -19 -5 -20 -4 -8 5 12 9 12 13 2
17 -22 9 63 54 116 62 71 11 85 8 109 -19z m5813 -3 c0 -23 -2 -22 -19 10 -10
19 -9 22 4 17 8 -4 15 -15 15 -27z m-1400 8 c-7 -9 -15 -13 -17 -11 -7 7 7 26
19 26 6 0 6 -6 -2 -15z m1320 -9 c0 -22 -21 -41 -33 -29 -8 7 14 53 25 53 4 0
8 -11 8 -24z m-5930 0 c0 -2 -7 -7 -16 -10 -8 -3 -12 -2 -9 4 6 10 25 14 25 6z
m265 -86 c-3 -4 -21 -11 -41 -14 -19 -4 -43 -9 -52 -12 -9 -3 -5 2 11 11 15 8
27 20 27 26 0 6 -4 7 -10 4 -5 -3 -10 -2 -10 4 0 16 44 18 62 3 10 -8 15 -18
13 -22z m-105 15 c-7 -8 -22 -15 -33 -15 -20 0 -20 0 -1 15 27 20 51 20 34 0z
m120 -60 c-7 -8 -17 -15 -22 -15 -6 0 -5 7 2 15 7 8 17 15 22 15 6 0 5 -7 -2
-15z m-300 -16 c0 -5 -7 -9 -15 -9 -9 0 -12 6 -9 15 6 15 24 11 24 -6z m1470
11 c0 -5 -5 -10 -11 -10 -5 0 -7 5 -4 10 3 6 8 10 11 10 2 0 4 -4 4 -10z
m-234 -31 c8 -14 -11 -33 -25 -25 -11 7 -4 36 9 36 5 0 12 -5 16 -11z m1734
-33 c0 -3 -4 -8 -10 -11 -5 -3 -10 -1 -10 4 0 6 5 11 10 11 6 0 10 -2 10 -4z
m190 -46 c0 -5 -4 -10 -10 -10 -5 0 -10 5 -10 10 0 6 5 10 10 10 6 0 10 -4 10
-10z m-1672 -59 c-14 -22 -28 -28 -28 -11 0 6 5 10 11 10 6 0 9 6 6 14 -7 18
4 29 16 17 5 -5 3 -17 -5 -30z m-1738 19 c0 -5 -2 -10 -4 -10 -3 0 -8 5 -11
10 -3 6 -1 10 4 10 6 0 11 -4 11 -10z m3464 -68 c99 -56 155 -177 128 -280
-35 -130 -152 -214 -277 -197 -96 12 -180 69 -211 143 -21 48 -28 143 -15 185
27 82 112 162 189 178 61 13 130 2 186 -29z m-1567 -8 c6 -8 22 -14 34 -12 37
5 36 -28 -2 -63 -31 -28 -34 -29 -46 -13 -7 9 -10 21 -7 26 3 5 7 20 9 34 2
19 -4 28 -21 34 -30 12 -31 20 -1 15 12 -3 27 -12 34 -21z m4213 -5 c0 -5 -4
-9 -10 -9 -5 0 -10 7 -10 16 0 8 5 12 10 9 6 -3 10 -10 10 -16z m-4012 -137
c2 -7 -6 -12 -17 -12 -21 0 -27 11 -14 24 9 9 26 2 31 -12z m-38 -47 c6 -8 9
-19 5 -25 -3 -5 -2 -10 4 -10 7 0 7 -8 2 -22 -13 -36 -26 -27 -31 25 -6 49 -1
57 20 32z m-46 -244 c-1 -40 -17 -71 -30 -58 -3 3 -3 29 1 57 8 62 30 63 29 1z
m497 -49 c11 -29 5 -28 -16 4 -11 17 -12 25 -4 22 6 -2 16 -14 20 -26z m589
-102 c0 -5 -4 -10 -10 -10 -5 0 -10 5 -10 10 0 6 5 10 10 10 6 0 10 -4 10 -10z
m168 -124 c16 5 16 5 0 -5 -14 -9 -15 -17 -6 -47 13 -50 4 -53 -11 -4 -6 22
-17 40 -24 40 -9 0 -9 2 0 8 9 5 9 19 3 47 -15 65 -9 75 7 13 12 -45 18 -56
31 -52z m-1294 6 c8 -15 17 -44 21 -63 6 -32 3 -38 -36 -74 -24 -21 -45 -33
-47 -27 -3 11 26 170 35 185 7 12 12 8 27 -21z m278 -44 c-7 -7 -12 -8 -12 -2
0 14 12 26 19 19 2 -3 -1 -11 -7 -17z m-1640 -128 c34 -41 64 -76 69 -78 5 -2
22 11 39 29 16 19 30 29 30 23 0 -5 -5 -15 -11 -21 -6 -6 -9 -21 -7 -34 2 -20
11 -25 56 -33 31 -5 51 -14 49 -20 -5 -15 -137 -15 -163 0 -11 7 -34 14 -50
17 -27 4 -28 5 -6 12 25 8 26 11 12 28 -48 59 -130 178 -130 188 0 18 42 -23
112 -111z m88 29 c0 -6 -4 -7 -10 -4 -5 3 -10 11 -10 16 0 6 5 7 10 4 6 -3 10
-11 10 -16z m250 -64 c14 -16 10 -18 -14 -9 -9 3 -16 10 -16 15 0 14 16 11 30
-6z m3257 -50 c0 -27 -16 -15 -38 28 l-21 42 29 -28 c16 -15 30 -34 30 -42z
m-653 -7 c-5 -7 -20 -33 -36 -57 l-27 -44 42 -37 c128 -113 88 -330 -75 -400
-103 -44 -231 -6 -287 86 -14 24 -30 44 -36 44 -16 0 -1 170 17 205 20 37 73
88 113 108 53 26 91 29 156 13 34 -9 63 -15 64 -14 31 52 68 108 72 108 2 0 1
-6 -3 -12z m-1579 -18 c3 -5 1 -10 -4 -10 -6 0 -11 5 -11 10 0 6 2 10 4 10 3
0 8 -4 11 -10z m2172 -46 c-3 -3 -12 -4 -19 -1 -8 3 -5 6 6 6 11 1 17 -2 13
-5z m-2490 -19 c97 -41 152 -122 161 -235 2 -36 9 -71 14 -77 6 -7 51 -36 102
-65 50 -28 123 -71 162 -94 48 -29 79 -41 93 -37 16 4 20 2 16 -10 -5 -10 18
-29 77 -66 46 -28 79 -51 74 -51 -11 0 -189 90 -196 99 -5 6 -14 11 -125 74
-38 22 -83 49 -100 61 -16 12 -57 37 -90 55 -45 25 -60 30 -63 20 -3 -8 -28
-37 -57 -66 -69 -67 -132 -84 -218 -59 -134 39 -211 185 -162 304 50 119 205
192 312 147z m713 -320 c-50 -58 -94 -105 -96 -105 -3 0 36 47 86 105 50 58
94 105 96 105 3 0 -36 -47 -86 -105z m460 39 c0 -8 -4 -12 -10 -9 -5 3 -10 13
-10 21 0 8 5 12 10 9 6 -3 10 -13 10 -21z m197 -66 c-3 -8 -6 -5 -6 6 -1 11 2
17 5 13 3 -3 4 -12 1 -19z m-1201 -34 c-4 -9 -9 -15 -11 -12 -3 3 -3 13 1 22
4 9 9 15 11 12 3 -3 3 -13 -1 -22z"/>
<path d="M2881 6028 c-67 -34 -86 -67 -86 -143 0 -71 17 -103 76 -143 29 -20
44 -23 96 -20 73 5 107 25 136 81 75 146 -78 301 -222 225z"/>
<path d="M3987 5142 c-11 -39 -11 -48 0 -55 7 -4 14 -16 14 -25 1 -9 5 6 9 33
4 28 11 57 15 66 4 10 0 19 -9 22 -11 5 -19 -6 -29 -41z"/>
<path d="M3990 5008 c0 -16 4 -28 9 -28 5 0 12 -10 14 -22 3 -18 5 -16 6 8 0
16 -6 39 -14 50 -14 18 -14 18 -15 -8z"/>
<path d="M3360 4450 c0 -5 5 -10 10 -10 6 0 10 5 10 10 0 6 -4 10 -10 10 -5 0
-10 -4 -10 -10z"/>
<path d="M2898 3978 c-77 -21 -137 -122 -119 -201 20 -84 74 -127 162 -127 70
0 115 27 147 90 27 55 28 101 1 156 -34 71 -112 104 -191 82z"/>
<path d="M4679 3970 c-100 -53 -127 -157 -64 -251 46 -70 164 -90 234 -38 38
28 71 93 71 141 0 55 -39 118 -90 145 -52 28 -102 29 -151 3z"/>
<path d="M4479 3838 c-5 -17 -4 -50 3 -54 4 -3 8 9 8 25 0 17 -2 31 -5 31 -3
0 -5 -1 -6 -2z"/>
<path d="M2889 2967 c-18 -12 -44 -38 -57 -57 -32 -47 -28 -139 7 -189 27 -38
91 -70 139 -71 72 0 152 70 168 147 7 36 -10 96 -39 135 -44 60 -155 78 -218
35z"/>
<path d="M3557 2961 c-4 -17 -3 -21 5 -13 5 5 8 16 6 23 -3 8 -7 3 -11 -10z"/>
<path d="M3602 2960 c0 -14 2 -19 5 -12 2 6 2 18 0 25 -3 6 -5 1 -5 -13z"/>
<path d="M3770 2970 c-1 -3 -3 -18 -5 -35 -3 -24 -2 -27 6 -12 6 10 8 25 6 35
-3 9 -6 15 -7 12z"/>
<path d="M3830 2850 c0 -5 5 -10 10 -10 6 0 10 5 10 10 0 6 -4 10 -10 10 -5 0
-10 -4 -10 -10z"/>
<path d="M3817 2813 c-14 -13 -6 -29 22 -46 16 -9 34 -17 40 -17 15 0 14 43
-1 58 -13 13 -50 16 -61 5z"/>
<path d="M4180 2799 c0 -5 5 -7 10 -4 6 3 10 8 10 11 0 2 -4 4 -10 4 -5 0 -10
-5 -10 -11z"/>
<path d="M3935 2481 c-3 -5 -1 -12 5 -16 5 -3 10 1 10 9 0 18 -6 21 -15 7z"/>
<path d="M4705 6043 c-35 -9 -87 -55 -102 -92 -31 -74 6 -175 80 -212 49 -26
125 -22 165 8 53 40 67 69 67 143 0 63 -3 72 -30 101 -48 51 -110 69 -180 52z"/>
<path d="M2201 4184 c0 -11 3 -14 6 -6 3 7 2 16 -1 19 -3 4 -6 -2 -5 -13z"/>
<path d="M2876 4988 c-24 -14 -49 -40 -63 -67 -38 -73 -28 -139 29 -198 75
-78 195 -66 263 27 19 26 25 46 25 87 0 61 -15 95 -59 138 -27 25 -41 30 -94
32 -51 3 -69 0 -101 -19z"/>
<path d="M4661 4993 c-103 -51 -120 -226 -27 -286 80 -53 169 -44 229 22 57
63 59 149 4 223 -41 56 -137 75 -206 41z"/>
<path d="M5825 3370 c4 -6 15 -8 26 -5 13 4 19 2 19 -9 0 -12 -5 -14 -25 -6
-15 6 -26 6 -30 0 -4 -6 3 -10 14 -10 12 0 21 -6 21 -14 0 -12 39 -30 48 -21
2 2 -1 12 -7 24 -8 14 -8 22 1 27 6 4 14 2 16 -4 4 -14 72 -16 72 -2 0 5 -17
14 -37 19 -50 14 -126 14 -118 1z"/>
<path d="M5962 3298 c4 -20 70 -50 82 -38 7 7 3 10 -11 10 -12 0 -25 4 -28 10
-3 5 -15 15 -26 20 -15 8 -19 8 -17 -2z"/>
<path d="M4645 2976 c-65 -29 -111 -111 -100 -178 8 -44 52 -101 96 -124 40
-20 113 -18 159 6 112 57 119 234 10 291 -41 22 -121 24 -165 5z"/>
<path d="M4675 1915 c-92 -50 -119 -136 -72 -226 60 -112 221 -121 286 -15 25
40 28 123 6 166 -38 74 -151 112 -220 75z"/>
<path d="M2882 1919 c-66 -33 -97 -80 -97 -150 0 -49 4 -63 31 -96 43 -54 88
-75 147 -69 96 10 152 72 152 166 0 131 -117 206 -233 149z"/>
<path d="M7546 4227 c3 -9 -2 -17 -13 -20 -11 -4 -9 -5 7 -4 26 2 35 27 12 35
-7 2 -10 -2 -6 -11z"/>
<path d="M7495 4032 c12 -19 37 -37 73 -52 30 -13 64 -32 74 -42 29 -29 39
-22 36 24 -3 43 -3 43 -63 64 -33 12 -77 24 -98 28 l-39 7 17 -29z"/>
<path d="M7550 3941 c0 -6 4 -13 10 -16 6 -3 7 1 4 9 -7 18 -14 21 -14 7z"/>
<path d="M0 3727 c0 -18 5 -38 12 -45 9 -9 9 -12 -2 -12 -7 0 -11 -3 -8 -6 3
-3 15 0 26 7 16 10 24 10 34 1 11 -9 17 -9 26 0 9 9 12 9 12 -2 0 -7 3 -11 6
-7 4 3 23 -2 44 -13 21 -11 40 -17 43 -14 12 13 -8 44 -35 53 -20 7 -27 15
-22 23 4 8 3 10 -2 5 -5 -5 -9 -14 -9 -20 0 -7 -7 -12 -15 -12 -10 0 -15 9
-14 28 0 31 -3 33 -27 11 -17 -15 -20 -14 -43 10 l-26 25 0 -32z"/>
<path d="M155 3741 c-3 -5 -1 -12 5 -16 5 -3 10 1 10 9 0 18 -6 21 -15 7z"/>
<path d="M7620 3694 c-31 -12 -69 -25 -85 -28 -24 -5 -50 -25 -41 -33 1 -2 36
8 76 22 40 14 82 25 92 25 11 0 18 7 18 20 0 11 -1 19 -2 19 -2 -1 -28 -12
-58 -25z"/>
<path d="M7587 3351 c-3 -12 -1 -24 4 -27 13 -8 24 25 12 37 -7 7 -12 3 -16
-10z"/>
</g>
</svg>
